<svg width="16" height="20" viewBox="0 0 16 20" fill="none" xmlns="http://www.w3.org/2000/svg">
<path d="M7.68666 6.01837C6.95666 6.01837 5.82666 5.18837 4.63666 5.21837C3.06666 5.23837 1.62666 6.12837 0.816657 7.53837C-0.813343 10.3684 0.396657 14.5484 1.98666 16.8484C2.76666 17.9684 3.68666 19.2284 4.90666 19.1884C6.07666 19.1384 6.51666 18.4284 7.93666 18.4284C9.34666 18.4284 9.74666 19.1884 10.9867 19.1584C12.2467 19.1384 13.0467 18.0184 13.8167 16.8884C14.7067 15.5884 15.0767 14.3284 15.0967 14.2584C15.0667 14.2484 12.6467 13.3184 12.6167 10.5184C12.5967 8.17837 14.5267 7.05837 14.6167 7.00837C13.5167 5.39837 11.8267 5.21837 11.2367 5.17837C9.69666 5.05837 8.40666 6.01837 7.68666 6.01837V6.01837ZM10.2867 3.65837C10.9367 2.87837 11.3667 1.78837 11.2467 0.708374C10.3167 0.748374 9.19666 1.32837 8.52666 2.10837C7.92666 2.79837 7.40666 3.90837 7.54666 4.96837C8.57666 5.04837 9.63666 4.43837 10.2867 3.65837V3.65837Z" fill="white"/>
</svg>
