<svg width="390" height="330" viewBox="0 0 390 330" fill="none" xmlns="http://www.w3.org/2000/svg">
<g clip-path="url(#clip0_1_1892)">
<path d="M-23.8678 0C-10.4079 33.2508 3.83345 53.6376 18.0689 65.5548" stroke="#031B1C" stroke-width="10.0508" stroke-linecap="round"/>
<path d="M103.052 68.221C80.2193 77.2115 49.1581 91.581 18.0689 65.5547" stroke="#031B1C" stroke-width="10.0508" stroke-linecap="round"/>
<path d="M103.052 68.221C136.997 54.9477 154.525 52.9102 162.551 58.4909" stroke="#031B1C" stroke-width="10.0508" stroke-linecap="round"/>
<path d="M162.551 58.4909C174.105 66.5239 165.975 90.341 158.794 119.155" stroke="#031B1C" stroke-width="10.0508" stroke-linecap="round"/>
<path d="M158.794 119.155C153.646 139.808 148.986 163.029 152.412 184.844" stroke="#031B1C" stroke-width="10.0508" stroke-linecap="round"/>
<path d="M221.342 253.405C174.454 238.423 156.8 212.787 152.412 184.844" stroke="#031B1C" stroke-width="10.0508" stroke-linecap="round"/>
<path d="M221.342 253.405C250.704 262.786 274.485 263.572 292.806 259.169" stroke="#031B1C" stroke-width="10.0508" stroke-linecap="round"/>
<path d="M292.806 259.169C323.745 251.735 339.114 229.506 339.494 208.895" stroke="#031B1C" stroke-width="10.0508" stroke-linecap="round"/>
<path d="M298.59 168.441C326.051 170.326 339.864 188.845 339.494 208.894" stroke="#031B1C" stroke-width="10.0508" stroke-linecap="round"/>
<path d="M298.59 168.441C267.68 166.318 251.108 180.74 246.96 200.997" stroke="#031B1C" stroke-width="10.0508" stroke-linecap="round"/>
<path d="M292.806 288.233C258.218 265.914 241.391 228.196 246.96 200.997" stroke="#031B1C" stroke-width="10.0508" stroke-linecap="round"/>
<path d="M292.806 288.233C316.698 303.65 344.269 307.113 369.13 305.135" stroke="#031B1C" stroke-width="10.0508" stroke-linecap="round"/>
<path d="M-23.8678 0C-10.4079 33.2508 3.83345 53.6376 18.0689 65.5548" stroke="#A6EB2E" stroke-width="2.15375" stroke-linecap="round" stroke-dasharray="5.74 5.74"/>
<path d="M103.052 68.221C80.2194 77.2115 49.1582 91.581 18.0689 65.5547" stroke="#A6EB2E" stroke-width="2.15375" stroke-linecap="round" stroke-dasharray="5.74 5.74"/>
<path d="M103.052 68.221C136.998 54.9477 154.525 52.9102 162.551 58.4909" stroke="#A6EB2E" stroke-width="2.15375" stroke-linecap="round" stroke-dasharray="5.74 5.74"/>
<path d="M162.551 58.4909C174.105 66.5239 165.975 90.341 158.794 119.155" stroke="#A6EB2E" stroke-width="2.15375" stroke-linecap="round" stroke-dasharray="5.74 5.74"/>
<path d="M158.794 119.155C153.646 139.808 148.986 163.029 152.412 184.844" stroke="#A6EB2E" stroke-width="2.15375" stroke-linecap="round" stroke-dasharray="5.74 5.74"/>
<path d="M221.342 253.405C174.454 238.423 156.8 212.787 152.412 184.844" stroke="#A6EB2E" stroke-width="2.15375" stroke-linecap="round" stroke-dasharray="5.74 5.74"/>
<path d="M221.342 253.405C250.704 262.786 274.485 263.572 292.806 259.169" stroke="#A6EB2E" stroke-width="2.15375" stroke-linecap="round" stroke-dasharray="5.74 5.74"/>
<path d="M292.806 259.169C323.745 251.735 339.114 229.506 339.494 208.895" stroke="#A6EB2E" stroke-width="2.15375" stroke-linecap="round" stroke-dasharray="5.74 5.74"/>
<path d="M298.59 168.441C326.051 170.326 339.864 188.845 339.494 208.894" stroke="#A6EB2E" stroke-width="2.15375" stroke-linecap="round" stroke-dasharray="5.74 5.74"/>
<path d="M298.59 168.441C267.68 166.318 251.108 180.74 246.96 200.997" stroke="#A6EB2E" stroke-width="2.15375" stroke-linecap="round" stroke-dasharray="5.74 5.74"/>
<path d="M292.806 288.233C258.218 265.914 241.391 228.196 246.96 200.997" stroke="#A6EB2E" stroke-width="2.15375" stroke-linecap="round" stroke-dasharray="5.74 5.74"/>
<path d="M292.806 288.233C316.698 303.65 344.269 307.113 369.13 305.135" stroke="#A6EB2E" stroke-width="2.15375" stroke-linecap="round" stroke-dasharray="5.74 5.74"/>
<g clip-path="url(#clip1_1_1892)">
<path d="M285.46 294.615C284.583 294.198 284.093 293.252 284.263 292.296C284.53 290.792 285.185 288.297 286.795 284.915C288.404 281.533 289.927 279.45 290.926 278.295C291.561 277.56 292.604 277.343 293.481 277.761L315.538 288.257C317.077 288.99 317.885 290.699 317.482 292.356C317.08 294.005 316.41 296.194 315.318 298.489C314.226 300.783 312.95 302.684 311.923 304.036C310.891 305.393 309.056 305.844 307.517 305.112L285.46 294.615Z" fill="#A6EB2E"/>
<path d="M302.107 296.177L304.114 300.312C304.114 300.312 305.983 298.057 307.539 294.787C309.095 291.516 309.667 288.644 309.667 288.644L305.192 289.694L302.107 296.177ZM294.82 284.758L293.461 280.931C293.461 280.931 291.868 282.608 290.037 286.454C288.207 290.301 287.908 292.6 287.908 292.6L291.735 291.241L294.82 284.758ZM299.237 297.196L292.474 293.978L289.604 294.997L300.611 300.235L299.237 297.196ZM304.173 286.824L297.41 283.606L296.391 280.736L307.398 285.974L304.173 286.824Z" fill="#031B1C"/>
<path d="M309.234 282.872L310.53 283.489L309.296 286.082L308 285.465L309.234 282.872ZM300.596 301.023L301.892 301.64L300.658 304.233L299.362 303.616L300.596 301.023Z" fill="#A6EB2E"/>
</g>
</g>
<defs>
<clipPath id="clip0_1_1892">
<rect width="471" height="329.321" fill="white" transform="translate(-41)"/>
</clipPath>
<clipPath id="clip1_1_1892">
<rect width="34.46" height="34.46" fill="white" transform="translate(292.563 267.783) rotate(25.4492)"/>
</clipPath>
</defs>
</svg>
