<svg width="17" height="18" viewBox="0 0 17 18" fill="none" xmlns="http://www.w3.org/2000/svg">
<path d="M1.55332 5.25829C2.24666 3.87766 3.3103 2.71705 4.62535 1.90618C5.9404 1.09531 7.45504 0.66614 8.99999 0.666626C11.2458 0.666626 13.1325 1.49163 14.575 2.83746L12.1858 5.22746C11.3217 4.40163 10.2233 3.98079 8.99999 3.98079C6.82916 3.98079 4.99166 5.44746 4.33749 7.41663C4.17082 7.91663 4.07582 8.44996 4.07582 8.99996C4.07582 9.54996 4.17082 10.0833 4.33749 10.5833C4.99249 12.5533 6.82916 14.0191 8.99999 14.0191C10.1208 14.0191 11.075 13.7233 11.8217 13.2233C12.2545 12.9383 12.6251 12.5685 12.911 12.1362C13.1969 11.7039 13.3922 11.2182 13.485 10.7083H8.99999V7.48496H16.8483C16.9467 8.02996 17 8.59829 17 9.18913C17 11.7275 16.0917 13.8641 14.515 15.3141C13.1367 16.5875 11.25 17.3333 8.99999 17.3333C7.90552 17.3337 6.82169 17.1185 5.81044 16.6998C4.7992 16.2812 3.88037 15.6674 3.10646 14.8935C2.33255 14.1196 1.71874 13.2008 1.3001 12.1895C0.881468 11.1783 0.666219 10.0944 0.666657 8.99996C0.666657 7.65496 0.988324 6.38329 1.55332 5.25829Z" fill="white"/>
</svg>
