<svg width="60" height="60" viewBox="0 0 60 60" fill="none" xmlns="http://www.w3.org/2000/svg">
<path d="M29.375 60C39.3852 60 47.5 51.8852 47.5 41.875C47.5 31.8648 39.3852 23.75 29.375 23.75C19.3648 23.75 11.25 31.8648 11.25 41.875C11.25 51.8852 19.3648 60 29.375 60Z" fill="#90CAF9"/>
<path d="M15.7887 53.5488C9.7525 50.4338 5.625 44.1363 5.625 36.875C5.625 26.52 14.02 18.125 24.375 18.125C26.8088 18.125 29.135 18.5887 31.2687 19.4337" stroke="#031B1C" stroke-width="4" stroke-miterlimit="5" stroke-linecap="round" stroke-linejoin="round"/>
<path d="M37.4187 23.4062C40.9375 26.8138 43.125 31.5887 43.125 36.875C43.125 47.23 34.73 55.625 24.375 55.625C23.47 55.625 22.58 55.5612 21.7087 55.4362" stroke="#031B1C" stroke-width="4" stroke-miterlimit="5" stroke-linecap="round" stroke-linejoin="round"/>
<path d="M37.4187 23.4063L53.0225 8.02252" stroke="#031B1C" stroke-width="4" stroke-miterlimit="5" stroke-linecap="round" stroke-linejoin="round"/>
<path d="M36.25 7.5H53.75V25" stroke="#031B1C" stroke-width="4" stroke-miterlimit="5" stroke-linecap="round" stroke-linejoin="round"/>
</svg>
